<svg width="364" height="259" viewBox="0 0 364 259" fill="none" xmlns="http://www.w3.org/2000/svg">
<path d="M348.849 203.151C353.969 190.141 352.759 175.561 348.529 162.481C343.909 148.201 336.169 135.121 327.149 123.191C317.899 110.951 307.189 99.8214 295.709 89.6714C284.109 79.4114 271.699 70.0814 258.719 61.6314C245.369 52.9414 231.419 45.1814 217.049 38.3014C202.699 31.4314 187.859 25.5514 172.689 20.7414C157.639 15.9714 142.219 12.2914 126.579 10.1014C110.989 7.92141 95.1093 7.17142 79.4393 8.95142C65.0293 10.5914 50.4292 14.5214 38.3292 22.7614C32.4692 26.7514 27.3193 31.9014 23.5693 37.9414C21.5993 41.1214 20.0093 44.5614 18.3093 47.8814C17.7893 48.9114 17.2593 49.9414 16.7393 50.9714C22.9793 38.7414 34.3392 30.3614 46.8292 25.2714C60.2592 19.8014 74.9793 17.9214 89.3793 17.6214C103.999 17.3114 118.649 18.9314 133.009 21.5914C147.689 24.3114 162.139 28.2814 176.239 33.1814C190.539 38.1514 204.509 44.0614 218.059 50.8314C231.529 57.5614 244.599 65.1014 257.119 73.4614C269.269 81.5714 280.889 90.4614 291.789 100.191C302.619 109.851 312.739 120.401 321.559 131.941C330.239 143.301 337.839 155.711 342.639 169.231C346.989 181.471 348.959 194.911 345.609 207.641C344.769 210.821 343.599 213.921 342.099 216.851C344.399 212.341 346.989 207.871 348.839 203.161C348.939 202.901 348.659 203.631 348.839 203.161L348.849 203.151Z" fill="url(#paint0_linear_902_120)"/>
<path d="M357.019 214.931C349.609 227.911 336.749 236.561 322.899 241.531C308.459 246.721 292.949 248.521 277.669 248.561C262.489 248.601 247.319 246.871 232.419 244.011C216.679 240.981 201.209 236.661 186.089 231.341C170.839 225.971 155.949 219.571 141.509 212.291C127.339 205.131 113.589 197.131 100.409 188.271C87.4393 179.551 75.0293 170.001 63.4093 159.551C51.9093 149.201 41.1693 137.911 31.8293 125.561C22.9593 113.841 15.0693 100.991 10.1293 87.0814C5.38927 73.7314 3.16928 59.3214 6.79928 45.4114C7.67928 42.0514 8.93928 38.7614 10.5193 35.6714C8.95928 38.7314 7.38928 41.7914 5.82928 44.8614C2.56928 51.2614 0.769267 58.1114 0.189267 65.2514C-1.15073 81.8314 4.79927 98.5314 12.5093 112.931C20.4393 127.731 30.8393 141.141 42.3093 153.351C54.3793 166.191 67.7493 177.821 81.9093 188.301C96.2193 198.891 111.289 208.421 126.959 216.881C143.079 225.581 159.799 233.171 176.999 239.471C194.039 245.711 211.579 250.731 229.439 254.011C246.299 257.101 263.449 258.771 280.599 258.011C297.629 257.251 315.079 254.011 330.129 245.671C337.249 241.731 343.719 236.411 348.629 229.891C351.709 225.801 353.899 221.221 356.219 216.681C356.859 215.431 357.499 214.171 358.139 212.921C357.789 213.611 357.399 214.281 357.009 214.951C357.389 214.281 356.829 215.271 357.009 214.951L357.019 214.931Z" fill="url(#paint1_linear_902_120)"/>
<path d="M127.969 205.111C34.0792 153.021 -17.0308 74.3713 14.0492 29.8013C45.1292 -14.7687 146.809 -8.63867 240.699 43.4513C334.589 95.5413 385.699 174.191 354.619 218.761C323.539 263.331 221.859 257.201 127.969 205.111ZM237.099 48.6314C149.219 -0.128643 54.0492 -5.85867 24.9492 35.8513C-4.15083 77.5713 43.6892 151.181 131.569 199.941C219.449 248.701 314.619 254.441 343.719 212.721C372.809 171.011 324.979 97.3914 237.099 48.6314Z" fill="url(#paint2_linear_902_120)"/>
<defs>
<linearGradient id="paint0_linear_902_120" x1="16.7493" y1="112.401" x2="352.219" y2="112.401" gradientUnits="userSpaceOnUse">
<stop stop-color="#FFDAFF"/>
<stop offset="1" stop-color="#B782B4"/>
</linearGradient>
<linearGradient id="paint1_linear_902_120" x1="0.0092671" y1="146.921" x2="358.139" y2="146.921" gradientUnits="userSpaceOnUse">
<stop stop-color="#FFDAFF"/>
<stop offset="1" stop-color="#B782B4"/>
</linearGradient>
<linearGradient id="paint2_linear_902_120" x1="341.699" y1="258.981" x2="43.1992" y2="3.4813" gradientUnits="userSpaceOnUse">
<stop stop-color="#FFDAFF"/>
<stop offset="1" stop-color="#FFF0FF"/>
</linearGradient>
</defs>
</svg>
