<svg width="1512" height="520" viewBox="0 0 1512 520" fill="none" xmlns="http://www.w3.org/2000/svg">
<path d="M106.5 356.5C58.1313 355.694 9.1187 385.835 -39 382C-213.208 368.116 36.4257 -13 36.4257 -13H1508.27C1508.27 -13 1615.67 263.775 1508.27 312.964C1400.86 362.154 1453.92 496.204 1334.7 506.444C1209.72 517.18 1225.68 369.301 1111.31 329.361C1001.5 291.016 916.064 345.018 802.848 312.964C706.601 285.715 687.747 193.492 585.466 200.156C457.683 208.481 535.574 501.055 409.5 519C302.691 534.203 215.125 358.309 106.5 356.5Z" fill="url(#paint0_linear_700_11)"/>
<path d="M1234.73 269.293C1241.18 258.402 1249.44 255.108 1261.33 250.911C1291.73 240.187 1313.81 260.939 1337.32 283.038L1337.81 283.498C1366.3 310.275 1384.14 337.89 1376.04 376.242C1371.11 399.622 1363.41 414.787 1343.62 428.046C1295.84 460.07 1262.11 374.167 1243.88 319.426C1237.59 300.552 1224.61 286.401 1234.73 269.293Z" fill="#F4B5D4"/>
<path d="M62.0956 126.321C27.2228 127.723 -23 168.843 -23 168.843V-38H1538V168.843C1420.88 64.3405 1363.41 188.099 1253.5 147.222C1175.1 118.066 1133.02 121.939 1046.5 126.321C938.994 131.767 999.076 172.112 899.326 204.158C784.44 241.065 731.032 123.774 607 126.321C452.519 129.494 421.502 258.055 273 224.382C185.418 204.523 153.116 122.663 62.0956 126.321Z" fill="#F8C5D4"/>
<defs>
<linearGradient id="paint0_linear_700_11" x1="757.5" y1="-38" x2="725.184" y2="381.07" gradientUnits="userSpaceOnUse">
<stop stop-color="#F3A9C0"/>
<stop offset="1" stop-color="#EA7EA0"/>
</linearGradient>
</defs>
</svg>
